# xmcd
# Track frame offsets:
# 150
# 16035
# 31987
# 45612
# 57602
# 69420
# 83090
# 96275
# 108447
# 122347
# 135725
# 151187
# 166325
# 180957
# 194892
# 209297
# 223405
# 238605
# 250670
# 265157
#
# Disc length: 3714 seconds
# Revision: 2
# Processed by: cddbd v1.5.2PL0 Copyright (c) Steve Scherf et al.
# Submitted via: VisiTrax 2.11.1.266 - For more info visit www.synapsa.com
#
DISCID=140e8014
DTITLE=Slim Dusty - Regal Zonophone Collection Disc 3
DYEAR=1995
DGENRE=Australian Country
TTITLE0=Lonesome Road Of Tears
TTITLE1=King Bundawaal
TTITLE2=Range Of Glory
TTITLE3=Runaway Heart
TTITLE4=Barndance Selection: Intro: Oh Johnny Oh - Going To The Barndance Toni
TTITLE4=ght
TTITLE5=Since The Bushland Boogie Came This Way
TTITLE6=Just Saddle Old Darkie
TTITLE7=The Rodeo Dance
TTITLE8=Sunny Northern Rose
TTITLE9=Rutland Rodeo
TTITLE10=Harry The Breaker
TTITLE11=Queensland State So Fair
TTITLE12=Walkin' On My Way
TTITLE13=Gumtrees By The Roadway
TTITLE14=Pastures Of Home
TTITLE15=Dreamin' On The Slip Rail
TTITLE16=Roaring Wheels
TTITLE17=The Nature Of Man
TTITLE18=Saddle Boy
TTITLE19=Pub With No Beer
EXTD=
EXTT0=
EXTT1=
EXTT2=
EXTT3=
EXTT4=
EXTT5=
EXTT6=
EXTT7=
EXTT8=
EXTT9=
EXTT10=
EXTT11=
EXTT12=
EXTT13=
EXTT14=
EXTT15=
EXTT16=
EXTT17=
EXTT18=
EXTT19=
PLAYORDER=
